<svg xmlns="http://www.w3.org/2000/svg" baseProfile="tiny" overflow="inherit" viewBox="0 0 720 960"><switch><g><g fill="#0592D0"><path d="M376 93c10 8 17 23 19 40h181v470L360 791 144 603V133h181c2-17 9-32 19-40H107v545l253 220 253-220V93H376z"/><path d="M541 256v-89H401c-8-18-23-29-41-29s-33 11-41 29H179v89l147 129v14h-22v40h22v159h-57v-33h35v-36h-89v92l89 77v-24h22v56h16v17h36v-17h16V439h22v-40h-22v-14l147-129zm-181-92c16 0 28 13 28 30 0 16-12 29-28 29s-28-13-28-29c0-17 12-30 28-30zm-52 156l-92-80v-19h103c8 17 23 29 41 29s33-12 41-29h103v19l-92 80H308z"/></g></g></switch></svg>