<?xml version="1.0" standalone="no"?>
<!DOCTYPE svg PUBLIC "-//W3C//DTD SVG 20010904//EN"
 "http://www.w3.org/TR/2001/REC-SVG-20010904/DTD/svg10.dtd">
<svg version="1.0" xmlns="http://www.w3.org/2000/svg"
 width="960.000000pt" height="960.000000pt" viewBox="0 0 960.000000 960.000000"
 preserveAspectRatio="xMidYMid meet">
<metadata>
Created by potrace 1.11, written by Peter Selinger 2001-2013
</metadata>
<g transform="translate(0.000000,960.000000) scale(0.100000,-0.100000)"
fill="#000000" stroke="none">
<path d="M2279 8672 c-12 -2 -14 -373 -13 -2726 l1 -2724 39 -33 c21 -19 77
-68 124 -109 75 -65 138 -120 216 -187 25 -21 148 -130 180 -158 12 -11 35
-31 51 -45 97 -84 161 -139 181 -156 13 -10 42 -36 65 -57 23 -21 59 -53 81
-70 21 -18 53 -46 71 -63 18 -17 41 -37 52 -45 17 -12 111 -95 193 -169 15
-14 39 -34 52 -45 23 -18 69 -58 201 -173 27 -24 60 -54 72 -65 13 -12 32 -29
43 -37 28 -22 173 -147 248 -215 12 -11 43 -38 69 -60 26 -22 57 -49 69 -60
12 -11 50 -45 86 -75 36 -30 70 -59 76 -65 6 -5 39 -35 74 -65 82 -72 87 -76
156 -135 32 -27 74 -65 93 -82 20 -18 38 -33 41 -33 5 0 37 28 121 103 9 7 69
60 135 117 65 57 124 109 130 114 6 6 30 27 53 46 24 19 60 50 81 70 21 19 62
56 92 81 105 90 453 393 464 404 13 11 42 37 134 115 35 30 71 62 80 70 28 26
152 134 178 155 13 11 37 32 53 46 15 14 49 44 75 65 25 21 58 50 73 64 15 14
41 36 57 50 70 60 170 147 190 165 11 11 34 31 50 45 24 20 304 263 340 295 7
5 38 33 70 61 33 28 82 71 109 95 l50 44 -1 2717 c0 1495 -3 2721 -7 2724 -8
8 -2347 12 -2352 4 -2 -3 12 -20 31 -39 63 -64 133 -234 138 -333 0 -17 7 -28
16 -29 8 -1 416 -2 905 -3 l890 -1 3 -105 c1 -58 2 -112 3 -120 0 -8 0 -69 0
-135 0 -66 -1 -129 0 -140 0 -11 0 -366 0 -790 0 -423 0 -774 0 -780 0 -5 0
-57 0 -115 -1 -58 -1 -112 0 -120 0 -8 0 -62 0 -120 -1 -58 -1 -112 0 -120 0
-8 0 -62 0 -120 -1 -58 -1 -112 0 -120 0 -8 0 -69 0 -135 0 -66 -1 -127 0
-135 0 -8 0 -217 0 -465 0 -247 0 -457 0 -465 0 -8 0 -62 0 -120 -1 -58 -1
-112 0 -120 0 -8 0 -62 0 -120 -1 -58 -1 -112 0 -120 0 -8 -1 -63 -2 -123 l-2
-107 -46 -39 c-25 -22 -57 -49 -71 -61 -14 -12 -47 -41 -73 -64 -27 -22 -59
-50 -71 -61 -12 -11 -45 -39 -72 -63 -27 -23 -63 -55 -79 -70 -17 -15 -55 -47
-84 -72 -30 -25 -69 -58 -87 -75 -18 -16 -56 -50 -85 -75 -28 -25 -60 -52 -69
-60 -9 -8 -46 -40 -81 -70 -35 -30 -84 -73 -109 -95 -24 -22 -50 -44 -56 -50
-6 -5 -30 -26 -54 -45 -23 -19 -57 -48 -75 -65 -18 -16 -59 -52 -91 -80 -59
-51 -93 -81 -129 -113 -11 -10 -72 -63 -135 -118 -111 -95 -158 -136 -206
-179 -12 -11 -41 -36 -64 -55 -23 -19 -52 -44 -64 -55 -81 -72 -109 -96 -171
-150 -39 -32 -77 -66 -86 -75 -15 -14 -45 -39 -82 -69 -15 -12 -23 -9 -64 25
-26 22 -55 46 -63 54 -9 8 -65 58 -125 110 -61 52 -112 97 -115 100 -3 3 -21
18 -40 34 -34 27 -156 135 -189 166 -9 8 -41 35 -71 60 -30 25 -64 54 -76 65
-28 27 -76 68 -154 135 -36 30 -74 64 -86 75 -12 11 -45 40 -74 65 -29 25 -58
50 -64 55 -6 6 -45 39 -86 75 -41 36 -80 70 -86 75 -6 6 -35 30 -64 55 -28 25
-62 54 -74 65 -12 11 -48 43 -80 70 -32 28 -68 59 -80 70 -21 19 -79 70 -190
164 -27 23 -54 48 -61 54 -6 7 -36 32 -65 57 -29 25 -58 50 -64 55 -6 6 -45
39 -86 74 -133 114 -118 35 -119 613 -1 277 -2 510 -2 518 0 8 0 62 0 120 1
58 1 112 0 120 0 8 0 62 0 120 1 58 1 112 0 120 0 8 0 62 0 120 1 58 1 112 0
120 0 8 0 62 0 120 1 58 1 112 0 120 0 8 0 62 0 120 1 58 1 112 0 120 0 8 0
62 0 120 1 58 1 112 0 120 0 8 0 62 0 120 1 58 1 112 0 120 0 8 0 62 0 120 1
58 1 112 0 120 0 8 0 62 0 120 1 58 1 112 1 120 -1 8 -1 98 -1 200 0 102 0
192 0 200 0 8 0 62 0 120 1 58 1 112 0 120 0 8 0 62 0 120 1 58 1 112 0 120 0
8 0 62 0 120 1 58 1 112 0 120 -1 28 0 265 2 295 0 17 2 43 2 60 l2 30 900 1
c495 1 902 2 906 3 3 0 5 11 5 24 1 30 13 97 20 108 3 5 7 21 10 35 8 45 63
144 106 190 24 26 35 44 27 45 -39 2 -2328 4 -2340 1z"/>
<path d="M4714 8213 c-112 -28 -218 -104 -280 -201 -19 -29 -34 -56 -34 -61 0
-5 -6 -11 -12 -13 -7 -2 -325 -4 -705 -4 -609 1 -693 -1 -694 -14 -1 -8 -2
-210 -3 -448 l-1 -433 48 -44 c26 -25 47 -42 47 -39 0 4 8 -3 18 -14 9 -11 76
-71 147 -132 72 -62 155 -134 185 -161 30 -26 64 -56 76 -66 39 -33 148 -128
198 -173 28 -24 59 -51 69 -60 10 -8 29 -24 41 -35 22 -20 52 -45 226 -196 47
-41 87 -76 90 -79 3 -3 39 -34 80 -70 41 -36 80 -69 86 -75 40 -35 140 -122
151 -130 13 -9 19 -78 14 -145 -1 -12 -20 -15 -109 -15 l-107 0 0 -195 0 -195
40 -1 c22 -1 72 -2 110 -3 l70 -1 -2 -783 c-1 -430 -2 -787 -2 -792 -1 -7
-100 -10 -286 -10 l-285 0 -1 27 c0 16 0 53 0 83 0 30 0 91 0 135 l1 81 171
-1 c94 -1 173 1 176 4 8 7 10 335 3 347 -3 4 -204 7 -445 6 l-440 -2 -1 -455
c-1 -513 -10 -452 76 -524 39 -32 155 -133 180 -156 9 -8 45 -40 81 -70 35
-30 66 -57 69 -60 3 -3 34 -30 69 -60 36 -30 72 -62 81 -70 9 -8 44 -40 79
-70 35 -30 73 -63 85 -73 12 -11 45 -40 75 -65 30 -26 63 -55 73 -64 21 -21
19 -32 22 121 l1 104 103 0 c57 0 106 -3 109 -7 3 -3 6 -129 6 -279 l0 -273
78 1 78 0 3 -85 3 -85 165 -1 c91 0 172 3 181 7 12 6 14 19 9 61 -3 29 -3 64
0 78 5 24 8 25 81 25 l76 -1 -1 1444 c-1 794 2 1449 5 1454 4 6 48 10 108 9
55 -1 102 2 102 6 4 21 5 369 2 379 -3 7 -38 11 -96 11 -51 1 -99 1 -107 2
-21 1 -20 133 1 152 8 8 64 57 124 109 61 52 112 97 115 100 3 3 39 35 80 70
41 35 80 69 86 74 6 6 37 34 69 61 32 28 63 55 69 60 6 6 63 55 126 110 63 55
120 104 126 110 6 5 35 30 64 55 30 25 68 58 85 74 16 15 47 42 68 60 21 17
49 40 61 51 12 11 48 43 80 70 32 28 68 59 80 70 12 11 67 60 124 109 56 48
102 95 103 105 1 9 2 210 3 448 1 377 -1 432 -14 435 -8 2 -324 3 -702 3
l-687 -1 -23 45 c-13 25 -50 73 -83 107 -109 111 -261 160 -391 127z m208
-281 c60 -34 93 -69 123 -127 99 -197 -36 -437 -245 -437 -69 0 -148 33 -192
79 -34 36 -76 112 -82 149 -2 16 -5 31 -6 34 -2 5 0 41 5 85 1 11 5 29 9 40 5
11 13 33 18 48 14 38 84 108 133 134 55 29 182 27 237 -5z m-540 -541 c3 -1
18 -20 31 -44 59 -99 175 -198 262 -222 17 -4 37 -10 45 -12 35 -10 140 -5
186 7 107 30 205 107 273 215 l38 60 509 -1 509 0 0 -100 1 -99 -31 -25 c-17
-14 -38 -32 -47 -40 -8 -8 -28 -26 -44 -39 -16 -14 -63 -54 -104 -90 -41 -36
-83 -72 -93 -81 -10 -8 -29 -24 -41 -35 -12 -11 -48 -42 -80 -70 -31 -27 -67
-59 -80 -70 -12 -11 -47 -41 -77 -67 -30 -26 -63 -55 -75 -65 -29 -25 -154
-136 -168 -148 -6 -6 -25 -22 -42 -36 l-31 -25 -526 0 c-519 1 -526 1 -549 22
-27 25 -84 75 -114 101 -22 19 -132 115 -168 147 -12 10 -43 37 -70 60 -27 22
-58 50 -70 61 -12 11 -71 63 -131 114 -61 52 -117 102 -126 110 -9 9 -38 35
-65 57 -27 23 -69 59 -94 81 l-44 40 -3 94 c-1 51 2 96 6 99 7 4 985 5 1013 1z"/>
</g>
</svg>
